<svg width="100%" viewBox="0 0 1000 164" fill="none" xmlns="http://www.w3.org/2000/svg">
        <path d="M908.071 163.455H944.588V30.2565H1000V0H852.659V30.2565H908.071V163.455Z" fill="#121212"></path>
        <path d="M662.293 163.455H698.809V106.999H730.109C741.238 106.999 751.053 105.956 759.554 103.869C768.133 101.782 775.32 98.5752 781.116 94.2473C786.913 89.8421 791.318 84.2777 794.332 77.554C797.346 70.8304 798.853 62.8702 798.853 53.6734V53.4416C798.853 44.2448 797.307 36.2846 794.216 29.5609C791.202 22.8373 786.758 17.3115 780.885 12.9836C775.011 8.57848 767.785 5.33257 759.207 3.24591C750.628 1.08197 740.774 0 729.646 0H662.293V163.455ZM698.809 77.3222V29.6769H729.066C734.476 29.6769 739.152 30.1406 743.093 31.068C747.034 31.9954 750.28 33.4638 752.831 35.4731C755.381 37.4052 757.274 39.8783 758.511 42.8924C759.825 45.8291 760.482 49.3455 760.482 53.4416V53.6734C760.482 57.7694 759.825 61.3245 758.511 64.3385C757.274 67.2753 755.381 69.7098 752.831 71.6418C750.28 73.5739 747.034 75.0037 743.093 75.9311C739.152 76.8585 734.476 77.3222 729.066 77.3222H698.809Z" fill="#121212"></path>
        <path d="M466.261 163.455H586.475V133.198H502.777V96.1021H577.781V65.9615H502.777V30.2565H585.896V0H466.261V163.455Z" fill="#121212"></path>
        <path d="M239.21 163.455H299.723C308.611 163.455 317.035 162.798 324.995 161.484C333.033 160.17 340.452 158.122 347.253 155.34C354.131 152.48 360.314 148.887 365.801 144.559C371.288 140.231 375.964 135.053 379.828 129.025C383.692 122.997 386.667 116.08 388.754 108.274C390.841 100.469 391.884 91.7356 391.884 82.0751V81.8433C391.884 71.951 390.841 63.0634 388.754 55.1805C386.667 47.2975 383.692 40.342 379.828 34.3139C375.964 28.2085 371.288 22.9918 365.801 18.664C360.314 14.3361 354.131 10.7811 347.253 7.99885C340.452 5.21664 333.033 3.20727 324.995 1.97074C317.035 0.65691 308.611 0 299.723 0H239.21V163.455ZM275.727 133.778V29.6769H299.144C304.94 29.6769 310.311 30.0633 315.257 30.8361C320.204 31.609 324.686 32.8455 328.705 34.5457C332.723 36.246 336.279 38.4872 339.37 41.2694C342.539 43.9743 345.166 47.2589 347.253 51.1231C349.339 54.9872 350.924 59.4697 352.006 64.5704C353.088 69.6711 353.629 75.4287 353.629 81.8433V82.0751C353.629 88.4896 353.088 94.2473 352.006 99.348C350.924 104.371 349.339 108.815 347.253 112.679C345.166 116.466 342.539 119.712 339.37 122.417C336.279 125.122 332.723 127.325 328.705 129.025C324.686 130.648 320.204 131.846 315.257 132.619C310.311 133.391 304.94 133.778 299.144 133.778H275.727Z" fill="#121212"></path>
        <path d="M0 163.455H37.0961L51.7027 124.388H119.287L134.01 163.455H173.308L109.202 0H64.1067L0 163.455ZM62.02 94.595L85.2051 32.8069H85.4369L108.854 94.595H62.02Z" fill="#121212"></path>
    </svg>