<svg xmlns="http://www.w3.org/2000/svg" viewBox="0 0 174 40" fill="none">
    <path fill="#fff"
        d="M22.334 9.126v21.748a9.222 9.222 0 0 0 9.224 9.223 9.226 9.226 0 0 0 9.225-9.223V9.126a9.223 9.223 0 0 0-9.225-9.223 9.225 9.225 0 0 0-9.224 9.223Zm6.602 21.748V9.126a2.503 2.503 0 0 1 2.72-2.524 2.447 2.447 0 0 1 2.524 2.524v21.748a2.563 2.563 0 0 1-2.525 2.524 2.625 2.625 0 0 1-2.719-2.524ZM93.995.388H75.35V6.99h6.02v32.427h6.604V6.99h6.02V.388Zm19.42 0v30.486a2.526 2.526 0 0 1-5.049 0V.388h-6.797v30.486a9.32 9.32 0 0 0 15.913 6.59 9.321 9.321 0 0 0 2.731-6.59V.388h-6.798Zm60.398 6.602V.388H157.5v39.03h16.313v-6.602h-9.71V22.718h6.214v-6.602h-6.214V6.99h9.71ZM69.137 39.417h-6.992L57.29 20.971a5.302 5.302 0 0 0 4.273-5.243v-6.02a2.66 2.66 0 0 0-2.72-2.718H56.32v32.427h-6.603V.388h9.128a9.245 9.245 0 0 1 9.322 8.932v6.214a10.427 10.427 0 0 1-3.69 8.544l4.66 15.34ZM142.74.388v21.36L135.943.388h-6.797v39.03h6.797v-19.03l6.215 19.03h7.379V.387h-6.797ZM0 .971V40h6.991V23.301h6.41v-6.602H6.99V7.573H17.09V.97H0Z">
    </path>
</svg>