<svg xmlns="http://www.w3.org/2000/svg" width="24" height="24" fill="none"><path fill="#fff" d="M0 1.72C0 .77.794 0 1.774 0h20.452C23.206 0 24 .77 24 1.72V22.28c0 .95-.794 1.719-1.774 1.719H1.774C.794 24 0 23.23 0 22.281V1.72Z"/><path fill="#272422" d="M7.293 20.085V9.28H3.702v10.805h3.591ZM5.498 7.805c1.252 0 2.032-.83 2.032-1.867-.024-1.06-.78-1.867-2.008-1.867-1.23 0-2.032.807-2.032 1.867 0 1.037.78 1.867 1.985 1.867h.023Zm3.783 12.28h3.591V14.05c0-.322.024-.645.118-.876.26-.645.85-1.313 1.843-1.313 1.3 0 1.82.99 1.82 2.443v5.78h3.59v-6.196c0-3.318-1.771-4.862-4.134-4.862-1.937 0-2.788 1.082-3.26 1.82h.023V9.28h-3.59c.046 1.014-.001 10.805-.001 10.805Z"/></svg>